# xmcd
#
# Track frame offsets:
# 150
# 13681
# 37807
# 56799
# 77359
# 104167
# 121418
# 142612
#
# Disc length: 2128 seconds
#
#
# Revision: 0
# Processed by: cddbd v1.5.2PL0 Copyright (c) Steve Scherf et al.
# Submitted via: FreeRIP 2.945 
#
DISCID=5d084e08
DTITLE=Teddy Pendergrass - It's Time for Love
DYEAR=1900
DGENRE=Soul
TTITLE0=I Can't Live Without Your Love
TTITLE1=You're My Latest, My Greatest Inspiration
TTITLE2=Nine Times Out of Ten
TTITLE3=Keep on Lovin' Me
TTITLE4=It's Time for Love
TTITLE5=She's Over Me
TTITLE6=I Can't Leave Your Love Alone
TTITLE7=You Must Live On
EXTD=
EXTT0=
EXTT1=
EXTT2=
EXTT3=
EXTT4=
EXTT5=
EXTT6=
EXTT7=
PLAYORDER=
